/* Generated by bin2c, do not edit manually */

/* Contents of file blink.mid */
const long int blink_mid_size = 269;
const unsigned char blink_mid[269] = {
    0x4D, 0x54, 0x68, 0x64, 0x00, 0x00, 0x00, 0x06, 0x00, 0x01, 0x00, 0x05, 0x00, 0x78, 0x4D, 0x54,
    0x72, 0x6B, 0x00, 0x00, 0x00, 0x2B, 0x00, 0xFF, 0x03, 0x08, 0x75, 0x6E, 0x74, 0x69, 0x74, 0x6C,
    0x65, 0x64, 0x00, 0xFF, 0x01, 0x02, 0x6A, 0x6A, 0x00, 0xFF, 0x58, 0x04, 0x04, 0x02, 0x18, 0x08,
    0x00, 0xFF, 0x59, 0x02, 0x00, 0x00, 0x00, 0xFF, 0x51, 0x03, 0x09, 0x27, 0xC0, 0x00, 0xFF, 0x2F,
    0x00, 0x4D, 0x54, 0x72, 0x6B, 0x00, 0x00, 0x00, 0x2B, 0x00, 0xFF, 0x03, 0x00, 0x00, 0xC0, 0x12,
    0x00, 0xB0, 0x07, 0x64, 0x00, 0x0A, 0x40, 0x00, 0x90, 0x2D, 0x64, 0x0F, 0x2D, 0x00, 0x00, 0x30,
    0x64, 0x0F, 0x30, 0x00, 0x00, 0x3B, 0x64, 0x0F, 0x3B, 0x00, 0x00, 0x47, 0x64, 0x0F, 0x47, 0x00,
    0x00, 0xFF, 0x2F, 0x00, 0x4D, 0x54, 0x72, 0x6B, 0x00, 0x00, 0x00, 0x2B, 0x00, 0xFF, 0x03, 0x00,
    0x00, 0xC1, 0x12, 0x00, 0xB1, 0x07, 0x50, 0x00, 0x0A, 0x40, 0x15, 0x91, 0x2D, 0x64, 0x0F, 0x2D,
    0x00, 0x00, 0x30, 0x64, 0x0F, 0x30, 0x00, 0x00, 0x3B, 0x64, 0x0F, 0x3B, 0x00, 0x00, 0x47, 0x64,
    0x0F, 0x47, 0x00, 0x00, 0xFF, 0x2F, 0x00, 0x4D, 0x54, 0x72, 0x6B, 0x00, 0x00, 0x00, 0x2B, 0x00,
    0xFF, 0x03, 0x00, 0x00, 0xC2, 0x12, 0x00, 0xB2, 0x07, 0x46, 0x00, 0x0A, 0x40, 0x27, 0x92, 0x2D,
    0x64, 0x0F, 0x2D, 0x00, 0x00, 0x30, 0x64, 0x0F, 0x30, 0x00, 0x00, 0x3B, 0x64, 0x0F, 0x3B, 0x00,
    0x00, 0x47, 0x64, 0x0F, 0x47, 0x00, 0x00, 0xFF, 0x2F, 0x00, 0x4D, 0x54, 0x72, 0x6B, 0x00, 0x00,
    0x00, 0x2B, 0x00, 0xFF, 0x03, 0x00, 0x00, 0xC3, 0x12, 0x00, 0xB3, 0x07, 0x32, 0x00, 0x0A, 0x40,
    0x3B, 0x93, 0x2D, 0x64, 0x0F, 0x2D, 0x00, 0x00, 0x30, 0x64, 0x0F, 0x30, 0x00, 0x00, 0x3B, 0x64,
    0x0F, 0x3B, 0x00, 0x00, 0x47, 0x64, 0x0F, 0x47, 0x00, 0x00, 0xFF, 0x2F, 0x00
};
