/* Generated by bin2c, do not edit manually */

/* Contents of file drop.mid */
const long int drop_mid_size = 389;
const unsigned char drop_mid[389] = {
    0x4D, 0x54, 0x68, 0x64, 0x00, 0x00, 0x00, 0x06, 0x00, 0x01, 0x00, 0x03, 0x00, 0x78, 0x4D, 0x54,
    0x72, 0x6B, 0x00, 0x00, 0x00, 0x2B, 0x00, 0xFF, 0x03, 0x08, 0x75, 0x6E, 0x74, 0x69, 0x74, 0x6C,
    0x65, 0x64, 0x00, 0xFF, 0x01, 0x02, 0x6A, 0x6A, 0x00, 0xFF, 0x58, 0x04, 0x04, 0x02, 0x18, 0x08,
    0x00, 0xFF, 0x59, 0x02, 0x00, 0x00, 0x00, 0xFF, 0x51, 0x03, 0x06, 0x1A, 0x80, 0x00, 0xFF, 0x2F,
    0x00, 0x4D, 0x54, 0x72, 0x6B, 0x00, 0x00, 0x01, 0x25, 0x00, 0xFF, 0x03, 0x00, 0x00, 0xC0, 0x50,
    0x00, 0xB0, 0x07, 0x64, 0x00, 0x0A, 0x40, 0x00, 0x65, 0x00, 0x01, 0x64, 0x00, 0x01, 0x06, 0x23,
    0x01, 0x26, 0x14, 0x00, 0x90, 0x27, 0x64, 0x00, 0xE0, 0x00, 0x43, 0x00, 0x00, 0x1E, 0x00, 0x00,
    0x20, 0x03, 0x00, 0x21, 0x02, 0x00, 0x24, 0x02, 0x00, 0x25, 0x02, 0x00, 0x27, 0x02, 0x00, 0x28,
    0x01, 0x00, 0x29, 0x01, 0x00, 0x2B, 0x03, 0x00, 0x2C, 0x02, 0x00, 0x2F, 0x01, 0x00, 0x32, 0x02,
    0x00, 0x34, 0x01, 0x00, 0x36, 0x02, 0x00, 0x38, 0x01, 0x00, 0x3A, 0x02, 0x00, 0x3C, 0x02, 0x00,
    0x3F, 0x01, 0x00, 0x41, 0x03, 0x00, 0x42, 0x01, 0x00, 0x45, 0x01, 0x00, 0x46, 0x01, 0x00, 0x48,
    0x01, 0x00, 0x4A, 0x02, 0x00, 0x4B, 0x01, 0x00, 0x4C, 0x02, 0x90, 0x27, 0x00, 0x00, 0xE0, 0x00,
    0x4D, 0x01, 0x00, 0x50, 0x02, 0x00, 0x52, 0x01, 0x00, 0x54, 0x02, 0x00, 0x50, 0x01, 0x00, 0x42,
    0x02, 0x00, 0x43, 0x01, 0x00, 0x44, 0x03, 0x00, 0x45, 0x02, 0x90, 0x27, 0x64, 0x02, 0xE0, 0x00,
    0x46, 0x02, 0x00, 0x47, 0x02, 0x00, 0x48, 0x01, 0x00, 0x49, 0x02, 0x00, 0x4A, 0x01, 0x00, 0x4B,
    0x03, 0x00, 0x4C, 0x02, 0x00, 0x4D, 0x01, 0x00, 0x4E, 0x02, 0x00, 0x4F, 0x01, 0x00, 0x51, 0x02,
    0x00, 0x53, 0x03, 0x00, 0x54, 0x02, 0x00, 0x55, 0x01, 0x00, 0x56, 0x01, 0x00, 0x58, 0x02, 0x00,
    0x59, 0x01, 0x00, 0x5A, 0x01, 0x00, 0x5D, 0x01, 0x00, 0x5E, 0x01, 0x00, 0x5F, 0x02, 0x00, 0x60,
    0x01, 0x00, 0x61, 0x02, 0x00, 0x62, 0x01, 0x00, 0x63, 0x02, 0x00, 0x64, 0x01, 0x00, 0x65, 0x01,
    0x00, 0x67, 0x01, 0x00, 0x68, 0x01, 0x00, 0x69, 0x03, 0x00, 0x6B, 0x01, 0x00, 0x6C, 0x01, 0x00,
    0x6D, 0x01, 0x00, 0x6E, 0x02, 0x00, 0x70, 0x02, 0x00, 0x71, 0x01, 0x00, 0x72, 0x01, 0x00, 0x73,
    0x02, 0x00, 0x75, 0x02, 0x00, 0x7B, 0x01, 0x00, 0x7C, 0x01, 0x00, 0x7E, 0x02, 0x7F, 0x7F, 0x08,
    0x7F, 0x7F, 0x01, 0x90, 0x27, 0x00, 0x0B, 0xE0, 0x7F, 0x7F, 0x00, 0xFF, 0x2F, 0x00, 0x4D, 0x54,
    0x72, 0x6B, 0x00, 0x00, 0x00, 0x0F, 0x00, 0xFF, 0x03, 0x00, 0x00, 0xB1, 0x07, 0x64, 0x00, 0x0A,
    0x40, 0x00, 0xFF, 0x2F, 0x00
};
