/* Generated by bin2c, do not edit manually */

/* Contents of file droppiece.mid */
const long int droppiece_mid_size = 98;
const unsigned char droppiece_mid[98] = {
    0x4D, 0x54, 0x68, 0x64, 0x00, 0x00, 0x00, 0x06, 0x00, 0x01, 0x00, 0x02, 0x00, 0x78, 0x4D, 0x54,
    0x72, 0x6B, 0x00, 0x00, 0x00, 0x2B, 0x00, 0xFF, 0x03, 0x08, 0x75, 0x6E, 0x74, 0x69, 0x74, 0x6C,
    0x65, 0x64, 0x00, 0xFF, 0x01, 0x02, 0x6A, 0x6A, 0x00, 0xFF, 0x58, 0x04, 0x04, 0x02, 0x18, 0x08,
    0x00, 0xFF, 0x59, 0x02, 0x00, 0x00, 0x00, 0xFF, 0x51, 0x03, 0x09, 0x27, 0xC0, 0x00, 0xFF, 0x2F,
    0x00, 0x4D, 0x54, 0x72, 0x6B, 0x00, 0x00, 0x00, 0x19, 0x00, 0xFF, 0x03, 0x00, 0x00, 0xC0, 0x73,
    0x00, 0xB0, 0x07, 0x7D, 0x00, 0x0A, 0x40, 0x00, 0x90, 0x37, 0x64, 0x0F, 0x37, 0x00, 0x00, 0xFF,
    0x2F, 0x00
};
