/* Generated by bin2c, do not edit manually */

/* Contents of file fail.mid */
const long int fail_mid_size = 143;
const unsigned char fail_mid[143] = {
    0x4D, 0x54, 0x68, 0x64, 0x00, 0x00, 0x00, 0x06, 0x00, 0x01, 0x00, 0x03, 0x00, 0x78, 0x4D, 0x54,
    0x72, 0x6B, 0x00, 0x00, 0x00, 0x2B, 0x00, 0xFF, 0x03, 0x08, 0x75, 0x6E, 0x74, 0x69, 0x74, 0x6C,
    0x65, 0x64, 0x00, 0xFF, 0x01, 0x02, 0x6A, 0x6A, 0x00, 0xFF, 0x58, 0x04, 0x04, 0x02, 0x18, 0x08,
    0x00, 0xFF, 0x59, 0x02, 0x00, 0x00, 0x00, 0xFF, 0x51, 0x03, 0x07, 0xA1, 0x20, 0x00, 0xFF, 0x2F,
    0x00, 0x4D, 0x54, 0x72, 0x6B, 0x00, 0x00, 0x00, 0x1F, 0x00, 0xFF, 0x03, 0x00, 0x00, 0xC0, 0x12,
    0x00, 0xB0, 0x07, 0x7D, 0x00, 0x0A, 0x40, 0x00, 0x90, 0x5A, 0x64, 0x0F, 0x5A, 0x00, 0x2D, 0x56,
    0x64, 0x2D, 0x56, 0x00, 0x00, 0xFF, 0x2F, 0x00, 0x4D, 0x54, 0x72, 0x6B, 0x00, 0x00, 0x00, 0x1F,
    0x00, 0xFF, 0x03, 0x00, 0x00, 0xC1, 0x6C, 0x00, 0xB1, 0x07, 0x64, 0x00, 0x0A, 0x40, 0x00, 0x91,
    0x5A, 0x64, 0x0F, 0x5A, 0x00, 0x2D, 0x56, 0x64, 0x2D, 0x56, 0x00, 0x00, 0xFF, 0x2F, 0x00
};
