/* Generated by bin2c, do not edit manually */

/* Contents of file over.mid */
const long int over_mid_size = 143;
const unsigned char over_mid[143] = {
    0x4D, 0x54, 0x68, 0x64, 0x00, 0x00, 0x00, 0x06, 0x00, 0x01, 0x00, 0x02, 0x00, 0x78, 0x4D, 0x54,
    0x72, 0x6B, 0x00, 0x00, 0x00, 0x2B, 0x00, 0xFF, 0x03, 0x08, 0x75, 0x6E, 0x74, 0x69, 0x74, 0x6C,
    0x65, 0x64, 0x00, 0xFF, 0x01, 0x02, 0x6A, 0x6A, 0x00, 0xFF, 0x58, 0x04, 0x04, 0x02, 0x18, 0x08,
    0x00, 0xFF, 0x59, 0x02, 0x00, 0x00, 0x00, 0xFF, 0x51, 0x03, 0x06, 0x1A, 0x80, 0x00, 0xFF, 0x2F,
    0x00, 0x4D, 0x54, 0x72, 0x6B, 0x00, 0x00, 0x00, 0x46, 0x00, 0xFF, 0x03, 0x00, 0x00, 0xB9, 0x07,
    0x7D, 0x00, 0x0A, 0x40, 0x00, 0x99, 0x23, 0x64, 0x00, 0x31, 0x3C, 0x00, 0x2C, 0x64, 0x0F, 0x2C,
    0x00, 0x00, 0x31, 0x00, 0x00, 0x23, 0x00, 0x0F, 0x2C, 0x64, 0x0F, 0x2C, 0x00, 0x2D, 0x2C, 0x64,
    0x0F, 0x2C, 0x00, 0x0F, 0x28, 0x64, 0x00, 0x31, 0x3C, 0x00, 0x26, 0x64, 0x00, 0x34, 0x4B, 0x0F,
    0x34, 0x00, 0x00, 0x28, 0x00, 0x00, 0x31, 0x00, 0x00, 0x26, 0x00, 0x00, 0xFF, 0x2F, 0x00
};
