/* Generated by bin2c, do not edit manually */

/* Contents of file singleline.mid */
const long int singleline_mid_size = 104;
const unsigned char singleline_mid[104] = {
    0x4D, 0x54, 0x68, 0x64, 0x00, 0x00, 0x00, 0x06, 0x00, 0x01, 0x00, 0x02, 0x00, 0x78, 0x4D, 0x54,
    0x72, 0x6B, 0x00, 0x00, 0x00, 0x2B, 0x00, 0xFF, 0x03, 0x08, 0x75, 0x6E, 0x74, 0x69, 0x74, 0x6C,
    0x65, 0x64, 0x00, 0xFF, 0x01, 0x02, 0x6A, 0x6A, 0x00, 0xFF, 0x58, 0x04, 0x04, 0x02, 0x18, 0x08,
    0x00, 0xFF, 0x59, 0x02, 0x00, 0x00, 0x00, 0xFF, 0x51, 0x03, 0x09, 0x27, 0xC0, 0x00, 0xFF, 0x2F,
    0x00, 0x4D, 0x54, 0x72, 0x6B, 0x00, 0x00, 0x00, 0x1F, 0x00, 0xFF, 0x03, 0x00, 0x00, 0xC0, 0x1A,
    0x00, 0xB0, 0x07, 0x78, 0x00, 0x0A, 0x40, 0x00, 0x90, 0x48, 0x64, 0x08, 0x4C, 0x64, 0x07, 0x48,
    0x00, 0x11, 0x4C, 0x00, 0x00, 0xFF, 0x2F, 0x00
};
