/* Generated by bin2c, do not edit manually */

/* Contents of file title.mid */
const long int title_mid_size = 1353;
const unsigned char title_mid[1353] = {
    0x4D, 0x54, 0x68, 0x64, 0x00, 0x00, 0x00, 0x06, 0x00, 0x01, 0x00, 0x11, 0x01, 0xE0, 0x4D, 0x54,
    0x72, 0x6B, 0x00, 0x00, 0x00, 0x1D, 0x00, 0xF0, 0x05, 0x7E, 0x7F, 0x09, 0x01, 0xF7, 0x00, 0xFF,
    0x51, 0x03, 0x06, 0x8A, 0x1B, 0x00, 0xF0, 0x07, 0x7F, 0x7F, 0x04, 0x01, 0x7F, 0x7F, 0xF7, 0x00,
    0xFF, 0x2F, 0x00, 0x4D, 0x54, 0x72, 0x6B, 0x00, 0x00, 0x00, 0xD6, 0x00, 0xC0, 0x41, 0x00, 0xB0,
    0x07, 0x6E, 0x00, 0x00, 0x00, 0x00, 0x20, 0x00, 0x00, 0x90, 0x4C, 0x7F, 0x83, 0x60, 0x80, 0x4C,
    0x00, 0x00, 0x90, 0x47, 0x7F, 0x81, 0x70, 0x80, 0x47, 0x00, 0x00, 0x90, 0x48, 0x7F, 0x81, 0x70,
    0x80, 0x48, 0x00, 0x00, 0x90, 0x4A, 0x7F, 0x81, 0x70, 0x80, 0x4A, 0x00, 0x00, 0x90, 0x4C, 0x7F,
    0x78, 0x80, 0x4C, 0x00, 0x00, 0x90, 0x4A, 0x7F, 0x78, 0x80, 0x4A, 0x00, 0x00, 0x90, 0x48, 0x7F,
    0x81, 0x70, 0x80, 0x48, 0x00, 0x00, 0x90, 0x47, 0x7F, 0x81, 0x70, 0x80, 0x47, 0x00, 0x00, 0x90,
    0x45, 0x7F, 0x83, 0x60, 0x80, 0x45, 0x00, 0x00, 0x90, 0x45, 0x7F, 0x81, 0x70, 0x80, 0x45, 0x00,
    0x00, 0x90, 0x48, 0x7F, 0x81, 0x70, 0x80, 0x48, 0x00, 0x00, 0x90, 0x4C, 0x7F, 0x83, 0x60, 0x80,
    0x4C, 0x00, 0x00, 0x90, 0x4A, 0x7F, 0x81, 0x70, 0x80, 0x4A, 0x00, 0x00, 0x90, 0x48, 0x7F, 0x81,
    0x70, 0x80, 0x48, 0x00, 0x00, 0x90, 0x47, 0x7F, 0x83, 0x60, 0x80, 0x47, 0x00, 0x00, 0x90, 0x47,
    0x7F, 0x81, 0x70, 0x80, 0x47, 0x00, 0x00, 0x90, 0x48, 0x7F, 0x81, 0x70, 0x80, 0x48, 0x00, 0x00,
    0x90, 0x4A, 0x7F, 0x83, 0x60, 0x80, 0x4A, 0x00, 0x00, 0x90, 0x4C, 0x7F, 0x83, 0x60, 0x80, 0x4C,
    0x00, 0x00, 0x90, 0x48, 0x7F, 0x83, 0x60, 0x80, 0x48, 0x00, 0x00, 0x90, 0x45, 0x7F, 0x83, 0x60,
    0x80, 0x45, 0x00, 0x00, 0x90, 0x45, 0x7F, 0x83, 0x60, 0x80, 0x45, 0x00, 0x87, 0x40, 0xFF, 0x2F,
    0x00, 0x4D, 0x54, 0x72, 0x6B, 0x00, 0x00, 0x00, 0xEA, 0x00, 0xC1, 0x19, 0x00, 0xB1, 0x07, 0x6E,
    0x00, 0x00, 0x00, 0x00, 0x20, 0x00, 0x00, 0x91, 0x47, 0x7F, 0x83, 0x60, 0x81, 0x47, 0x00, 0x00,
    0x91, 0x44, 0x7F, 0x81, 0x70, 0x81, 0x44, 0x00, 0x00, 0x91, 0x45, 0x7F, 0x81, 0x70, 0x81, 0x45,
    0x00, 0x00, 0x91, 0x47, 0x7F, 0x83, 0x60, 0x81, 0x47, 0x00, 0x00, 0x91, 0x45, 0x7F, 0x81, 0x70,
    0x81, 0x45, 0x00, 0x00, 0x91, 0x44, 0x7F, 0x81, 0x70, 0x81, 0x44, 0x00, 0x00, 0x91, 0x40, 0x7F,
    0x83, 0x60, 0x81, 0x40, 0x00, 0x00, 0x91, 0x40, 0x7F, 0x81, 0x70, 0x81, 0x40, 0x00, 0x00, 0x91,
    0x45, 0x7F, 0x81, 0x70, 0x81, 0x45, 0x00, 0x00, 0x91, 0x48, 0x7F, 0x83, 0x60, 0x81, 0x48, 0x00,
    0x00, 0x91, 0x47, 0x7F, 0x81, 0x70, 0x81, 0x47, 0x00, 0x00, 0x91, 0x45, 0x7F, 0x81, 0x70, 0x81,
    0x45, 0x00, 0x00, 0x91, 0x44, 0x7F, 0x81, 0x70, 0x81, 0x44, 0x00, 0x00, 0x91, 0x40, 0x7F, 0x81,
    0x70, 0x81, 0x40, 0x00, 0x00, 0x91, 0x44, 0x7F, 0x81, 0x70, 0x81, 0x44, 0x00, 0x00, 0x91, 0x45,
    0x7F, 0x81, 0x70, 0x81, 0x45, 0x00, 0x00, 0x91, 0x47, 0x7F, 0x81, 0x70, 0x81, 0x47, 0x00, 0x00,
    0x91, 0x44, 0x7F, 0x81, 0x70, 0x81, 0x44, 0x00, 0x00, 0x91, 0x48, 0x7F, 0x81, 0x70, 0x81, 0x48,
    0x00, 0x00, 0x91, 0x44, 0x7F, 0x81, 0x70, 0x81, 0x44, 0x00, 0x00, 0x91, 0x45, 0x7F, 0x81, 0x70,
    0x81, 0x45, 0x00, 0x00, 0x91, 0x40, 0x7F, 0x81, 0x70, 0x81, 0x40, 0x00, 0x00, 0x91, 0x40, 0x7F,
    0x83, 0x60, 0x81, 0x40, 0x00, 0x00, 0x91, 0x40, 0x7F, 0x83, 0x60, 0x81, 0x40, 0x00, 0x87, 0x40,
    0xFF, 0x2F, 0x00, 0x4D, 0x54, 0x72, 0x6B, 0x00, 0x00, 0x00, 0xD6, 0x00, 0xC2, 0x49, 0x00, 0xB2,
    0x07, 0x6E, 0x00, 0x00, 0x00, 0x00, 0x20, 0x00, 0x00, 0x92, 0x4C, 0x7F, 0x83, 0x60, 0x82, 0x4C,
    0x00, 0x00, 0x92, 0x47, 0x7F, 0x81, 0x70, 0x82, 0x47, 0x00, 0x00, 0x92, 0x48, 0x7F, 0x81, 0x70,
    0x82, 0x48, 0x00, 0x00, 0x92, 0x4A, 0x7F, 0x81, 0x70, 0x82, 0x4A, 0x00, 0x00, 0x92, 0x4C, 0x7F,
    0x78, 0x82, 0x4C, 0x00, 0x00, 0x92, 0x4A, 0x7F, 0x78, 0x82, 0x4A, 0x00, 0x00, 0x92, 0x48, 0x7F,
    0x81, 0x70, 0x82, 0x48, 0x00, 0x00, 0x92, 0x47, 0x7F, 0x81, 0x70, 0x82, 0x47, 0x00, 0x00, 0x92,
    0x45, 0x7F, 0x83, 0x60, 0x82, 0x45, 0x00, 0x00, 0x92, 0x45, 0x7F, 0x81, 0x70, 0x82, 0x45, 0x00,
    0x00, 0x92, 0x48, 0x7F, 0x81, 0x70, 0x82, 0x48, 0x00, 0x00, 0x92, 0x4C, 0x7F, 0x83, 0x60, 0x82,
    0x4C, 0x00, 0x00, 0x92, 0x4A, 0x7F, 0x81, 0x70, 0x82, 0x4A, 0x00, 0x00, 0x92, 0x48, 0x7F, 0x81,
    0x70, 0x82, 0x48, 0x00, 0x00, 0x92, 0x47, 0x7F, 0x83, 0x60, 0x82, 0x47, 0x00, 0x00, 0x92, 0x47,
    0x7F, 0x81, 0x70, 0x82, 0x47, 0x00, 0x00, 0x92, 0x48, 0x7F, 0x81, 0x70, 0x82, 0x48, 0x00, 0x00,
    0x92, 0x4A, 0x7F, 0x83, 0x60, 0x82, 0x4A, 0x00, 0x00, 0x92, 0x4C, 0x7F, 0x83, 0x60, 0x82, 0x4C,
    0x00, 0x00, 0x92, 0x48, 0x7F, 0x83, 0x60, 0x82, 0x48, 0x00, 0x00, 0x92, 0x45, 0x7F, 0x83, 0x60,
    0x82, 0x45, 0x00, 0x00, 0x92, 0x45, 0x7F, 0x83, 0x60, 0x82, 0x45, 0x00, 0x87, 0x40, 0xFF, 0x2F,
    0x00, 0x4D, 0x54, 0x72, 0x6B, 0x00, 0x00, 0x00, 0xFF, 0x00, 0xC3, 0x21, 0x00, 0xB3, 0x07, 0x6E,
    0x00, 0x00, 0x00, 0x00, 0x20, 0x00, 0x00, 0x93, 0x28, 0x7F, 0x81, 0x70, 0x83, 0x28, 0x00, 0x00,
    0x93, 0x34, 0x7F, 0x81, 0x70, 0x83, 0x34, 0x00, 0x00, 0x93, 0x28, 0x7F, 0x81, 0x70, 0x83, 0x28,
    0x00, 0x00, 0x93, 0x34, 0x7F, 0x81, 0x70, 0x83, 0x34, 0x00, 0x00, 0x93, 0x28, 0x7F, 0x81, 0x70,
    0x83, 0x28, 0x00, 0x00, 0x93, 0x34, 0x7F, 0x81, 0x70, 0x83, 0x34, 0x00, 0x00, 0x93, 0x28, 0x7F,
    0x81, 0x70, 0x83, 0x28, 0x00, 0x00, 0x93, 0x34, 0x7F, 0x81, 0x70, 0x83, 0x34, 0x00, 0x00, 0x93,
    0x2D, 0x7F, 0x81, 0x70, 0x83, 0x2D, 0x00, 0x00, 0x93, 0x39, 0x7F, 0x81, 0x70, 0x83, 0x39, 0x00,
    0x00, 0x93, 0x2D, 0x7F, 0x81, 0x70, 0x83, 0x2D, 0x00, 0x00, 0x93, 0x39, 0x7F, 0x81, 0x70, 0x83,
    0x39, 0x00, 0x00, 0x93, 0x2D, 0x7F, 0x81, 0x70, 0x83, 0x2D, 0x00, 0x00, 0x93, 0x39, 0x7F, 0x81,
    0x70, 0x83, 0x39, 0x00, 0x00, 0x93, 0x2D, 0x7F, 0x81, 0x70, 0x83, 0x2D, 0x00, 0x00, 0x93, 0x39,
    0x7F, 0x81, 0x70, 0x83, 0x39, 0x00, 0x00, 0x93, 0x2F, 0x7F, 0x81, 0x70, 0x83, 0x2F, 0x00, 0x00,
    0x93, 0x3B, 0x7F, 0x81, 0x70, 0x83, 0x3B, 0x00, 0x81, 0x70, 0x93, 0x3B, 0x7F, 0x81, 0x70, 0x83,
    0x3B, 0x00, 0x81, 0x70, 0x93, 0x34, 0x7F, 0x81, 0x70, 0x83, 0x34, 0x00, 0x81, 0x70, 0x93, 0x38,
    0x7F, 0x81, 0x70, 0x83, 0x38, 0x00, 0x00, 0x93, 0x2D, 0x7F, 0x81, 0x70, 0x83, 0x2D, 0x00, 0x00,
    0x93, 0x34, 0x7F, 0x81, 0x70, 0x83, 0x34, 0x00, 0x00, 0x93, 0x2D, 0x7F, 0x81, 0x70, 0x83, 0x2D,
    0x00, 0x00, 0x93, 0x34, 0x7F, 0x81, 0x70, 0x83, 0x34, 0x00, 0x00, 0x93, 0x2D, 0x7F, 0x83, 0x60,
    0x83, 0x2D, 0x00, 0x87, 0x40, 0xFF, 0x2F, 0x00, 0x4D, 0x54, 0x72, 0x6B, 0x00, 0x00, 0x00, 0x04,
    0x00, 0xFF, 0x2F, 0x00, 0x4D, 0x54, 0x72, 0x6B, 0x00, 0x00, 0x00, 0x04, 0x00, 0xFF, 0x2F, 0x00,
    0x4D, 0x54, 0x72, 0x6B, 0x00, 0x00, 0x00, 0x04, 0x00, 0xFF, 0x2F, 0x00, 0x4D, 0x54, 0x72, 0x6B,
    0x00, 0x00, 0x00, 0x04, 0x00, 0xFF, 0x2F, 0x00, 0x4D, 0x54, 0x72, 0x6B, 0x00, 0x00, 0x00, 0x04,
    0x00, 0xFF, 0x2F, 0x00, 0x4D, 0x54, 0x72, 0x6B, 0x00, 0x00, 0x00, 0xD5, 0x00, 0xC9, 0x00, 0x00,
    0xB9, 0x07, 0x7F, 0x00, 0x00, 0x00, 0x00, 0x20, 0x00, 0x00, 0x07, 0x78, 0x00, 0x99, 0x2A, 0x7F,
    0x81, 0x70, 0x89, 0x2A, 0x00, 0x00, 0x99, 0x2A, 0x7F, 0x81, 0x70, 0x89, 0x2A, 0x00, 0x81, 0x70,
    0x99, 0x2A, 0x7F, 0x78, 0x89, 0x2A, 0x00, 0x82, 0x68, 0x99, 0x2A, 0x7F, 0x78, 0x89, 0x2A, 0x00,
    0x00, 0x99, 0x2A, 0x7F, 0x78, 0x89, 0x2A, 0x00, 0x81, 0x70, 0x99, 0x2A, 0x7F, 0x78, 0x89, 0x2A,
    0x00, 0x82, 0x68, 0x99, 0x2A, 0x7F, 0x81, 0x70, 0x89, 0x2A, 0x00, 0x81, 0x70, 0x99, 0x2A, 0x7F,
    0x78, 0x89, 0x2A, 0x00, 0x82, 0x68, 0x99, 0x2A, 0x7F, 0x81, 0x70, 0x89, 0x2A, 0x00, 0x00, 0x99,
    0x2A, 0x7F, 0x78, 0x89, 0x2A, 0x00, 0x78, 0x99, 0x2A, 0x7F, 0x78, 0x89, 0x2A, 0x00, 0x82, 0x68,
    0x99, 0x2A, 0x7F, 0x81, 0x70, 0x89, 0x2A, 0x00, 0x81, 0x70, 0x99, 0x2A, 0x7F, 0x78, 0x89, 0x2A,
    0x00, 0x82, 0x68, 0x99, 0x2A, 0x7F, 0x78, 0x89, 0x2A, 0x00, 0x00, 0x99, 0x2A, 0x7F, 0x78, 0x89,
    0x2A, 0x00, 0x81, 0x70, 0x99, 0x2A, 0x7F, 0x81, 0x70, 0x89, 0x2A, 0x00, 0x81, 0x70, 0x99, 0x2A,
    0x7F, 0x81, 0x70, 0x89, 0x2A, 0x00, 0x81, 0x70, 0x99, 0x2A, 0x7F, 0x81, 0x70, 0x89, 0x2A, 0x00,
    0x81, 0x70, 0x99, 0x2A, 0x7F, 0x81, 0x70, 0x89, 0x2A, 0x00, 0x00, 0x99, 0x2A, 0x7F, 0x81, 0x70,
    0x89, 0x2A, 0x00, 0x00, 0x99, 0x2A, 0x7F, 0x81, 0x70, 0x89, 0x2A, 0x00, 0x83, 0x60, 0xFF, 0x2F,
    0x00, 0x4D, 0x54, 0x72, 0x6B, 0x00, 0x00, 0x00, 0x04, 0x00, 0xFF, 0x2F, 0x00, 0x4D, 0x54, 0x72,
    0x6B, 0x00, 0x00, 0x00, 0x04, 0x00, 0xFF, 0x2F, 0x00, 0x4D, 0x54, 0x72, 0x6B, 0x00, 0x00, 0x00,
    0x04, 0x00, 0xFF, 0x2F, 0x00, 0x4D, 0x54, 0x72, 0x6B, 0x00, 0x00, 0x00, 0x04, 0x00, 0xFF, 0x2F,
    0x00, 0x4D, 0x54, 0x72, 0x6B, 0x00, 0x00, 0x00, 0x04, 0x00, 0xFF, 0x2F, 0x00, 0x4D, 0x54, 0x72,
    0x6B, 0x00, 0x00, 0x00, 0x04, 0x00, 0xFF, 0x2F, 0x00
};
