/* Generated by bin2c, do not edit manually */

/* Contents of file undrop.mid */
const long int undrop_mid_size = 110;
const unsigned char undrop_mid[110] = {
    0x4D, 0x54, 0x68, 0x64, 0x00, 0x00, 0x00, 0x06, 0x00, 0x01, 0x00, 0x02, 0x00, 0x78, 0x4D, 0x54,
    0x72, 0x6B, 0x00, 0x00, 0x00, 0x2B, 0x00, 0xFF, 0x03, 0x08, 0x75, 0x6E, 0x74, 0x69, 0x74, 0x6C,
    0x65, 0x64, 0x00, 0xFF, 0x01, 0x02, 0x6A, 0x6A, 0x00, 0xFF, 0x58, 0x04, 0x04, 0x02, 0x18, 0x08,
    0x00, 0xFF, 0x59, 0x02, 0x00, 0x00, 0x00, 0xFF, 0x51, 0x03, 0x09, 0x27, 0xC0, 0x00, 0xFF, 0x2F,
    0x00, 0x4D, 0x54, 0x72, 0x6B, 0x00, 0x00, 0x00, 0x25, 0x00, 0xFF, 0x03, 0x00, 0x00, 0xC0, 0x72,
    0x00, 0xB0, 0x07, 0x78, 0x00, 0x0A, 0x40, 0x01, 0x90, 0x35, 0x64, 0x0C, 0x45, 0x54, 0x00, 0x39,
    0x64, 0x01, 0x35, 0x00, 0x0C, 0x39, 0x00, 0x00, 0x45, 0x00, 0x00, 0xFF, 0x2F, 0x00
};
